<?xml version="1.0" encoding="utf-8"?>
<!-- Generator: Adobe Illustrator 19.0.0, SVG Export Plug-In . SVG Version: 6.00 Build 0)  -->
<svg version="1.1" id="Layer_1" xmlns="http://www.w3.org/2000/svg" xmlns:xlink="http://www.w3.org/1999/xlink" x="0px" y="0px"
	 width="2779.9px" height="1506.7px" viewBox="0 0 2779.9 1506.7" style="enable-background:new 0 0 2779.9 1506.7;"
	 xml:space="preserve">
<style type="text/css">
	.st0{fill-rule:evenodd;clip-rule:evenodd;fill:#FFFFFF;}
	.st1{fill-rule:evenodd;clip-rule:evenodd;fill:#B20000;}
</style>
<g>
	<rect class="st0" width="2779.9" height="1506.6"/>
	<g>
		<g>
			<polygon class="st1" points="1262.5,634.4 1065.3,631.1 1032.6,765.2 1125.2,676.9 			"/>
			<polygon class="st1" points="1071.4,611.8 1299.1,616.1 1117.2,432 			"/>
			<polygon class="st1" points="1046.8,581.8 1094.8,430.4 788.6,457.6 991.3,506.6 			"/>
			<polygon class="st1" points="1114.3,331.4 978.1,297.7 824.5,424.1 999.9,395.7 			"/>
			<polygon class="st1" points="1018.4,236.6 1208,214.9 1064.2,176.7 974.8,74.3 			"/>
			<polygon class="st1" points="1132.9,318.4 1222.2,312.9 1259.3,230.1 1001,270.4 			"/>
			<polygon class="st1" points="1111.1,153.7 1294.2,183.1 1143.8,97 1029.4,0 			"/>
			<polygon class="st1" points="1139.5,10.3 1242,137.8 1319.3,162.8 1285.6,105.1 			"/>
			<polygon class="st1" points="1479.3,401.4 1404.1,203.1 1282.1,216.2 			"/>
			<polygon class="st1" points="1359.5,403.4 1395.5,344.5 1245.1,314 			"/>
			<path class="st1" d="M1608,452.9c5.5,0.5,4.4,4.9,10,14.7c5.6,9.8,18,25.1,37.4,37.1c19.4,12,45.9,20.7,63.9,27.6
				c18,6.9,27.4,12,31.6,19.6c4.2,7.6,3.1,17.8-1.3,26c-4.4,8.2-12,14.4-26.7,18.9c-14.7,4.5-36.5,7.4-72.3,5.3
				c-35.8-2.2-85.5-9.4-126.6-20.2c-41-10.7-73.4-24.9-92.3-33.2c-18.9-8.4-24.3-10.9-27.1-11.6c-2.7-0.7-2.7,0.4-1.3,13.1
				c1.5,12.7,4.4,37.1,5.6,51.8c1.3,14.7,0.9,19.8,8.7,25.8c7.8,6,23.8,12.9,59,14.2c35.2,1.3,89.7-3.1,116.6-6
				c26.9-2.9,26.2-4.4,36.3,1.1c10.2,5.5,31.2,17.8,68.8,25.6c37.6,7.8,91.7,11.1,131.3,8.5c39.6-2.5,64.7-10.9,80.1-19.3
				c15.4-8.4,21.2-16.7,24.1-23.2c2.9-6.5,2.1-12.6,8.5-15.4c11.1-4.8,55.9-13.5,47.6-41.2c-8.7-29-31.5-27.5-53.4-38.4
				c-15.8-7.8-35.1-21.6-57.2-44.3s-47.2-54.3-72.6-94.8c-25.4-40.5-51.2-89.9-84.5-130.2c-33.2-40.3-73.9-71.6-109.1-90.4
				c-35.2-18.9-65-25.4-85.4-30.2c-59.3-13.8-127.9-18-188.9-25.6c-27.6-3.5-27.6-3.5-17.3,5.6c10.4,9.1,31.1,27.2,41.2,36.5
				c10.2,9.3,9.8,9.6,34.1,9.3c24.3-0.4,73.4-1.5,105.5-1.1c79.8,0.9,176.5,68.7,221.6,133.7c20.2,29.1,43.4,71.2,61,99.7
				c17.6,28.5,29.6,43.4,47.2,61.9c17.6,18.5,40.9,40.7,58.7,55.6c17.8,14.9,30.2,22.5,33.8,26.3c3.6,3.8-1.4,3.8-7.3,7.3
				c-5.8,3.4-12.4,10.3-15.8,20c-3.5,9.6-3.8,22-6.9,25.6c-3.1,3.6-8.9-1.5-21.2-4c-12.4-2.5-31.2-2.5-45.6-2.4
				c-14.4,0.2-24.2,0.5-31.1,1.4c-6.9,0.9-10.9,2.4-8.4-0.5s11.6-10.2,18.3-19.6c6.7-9.4,11.1-21.1,9.4-34
				c-1.6-12.9-9.3-27.1-21.2-42.9c-12-15.8-28.3-33.2-42.9-50.1c-14.5-16.9-27.2-33.2-37.6-47.4c-10.4-14.2-18.3-26.2-28.7-42.3
				c-67.2-105-116.8-123.5-236.3-153.8c-24.3-6.2-24.9-6.4-12.9,23.4c12.8,31.6,30.1,82.9,47.6,125.5
				C1509.8,412.9,1537.5,445.8,1608,452.9z"/>
			<polygon class="st1" points="1149.2,427.3 1312.6,605 1395.5,634.4 1381.3,534.1 			"/>
		</g>
		<path class="st1" d="M369.6,1183.9c2.1-7.2,3.2-15.1,3.2-23.5v-15.3c0-8.8-1.7-17.2-5.1-25.2c-3.4-8-8.7-15.4-15.7-22
			c-3.9-3.7-9.3-7.3-16.1-10.7c-6.8-3.5-10.9-5.2-12-5.2c2.1-0.4,5.5-2.3,10.2-5.6c4.7-3.3,9.4-7.6,14.1-12.9
			c5.9-6.2,9.7-13,11.5-20.2c0.9-3.9,1.4-10.4,1.4-19.7v-16.4c0-9.4-2.5-18.9-7.3-28.4c-5.8-11.4-14.6-21.2-26.1-29.6
			c-6.4-4.5-16.8-8-31.1-10.5c-14.2-2.6-30-3.8-47.2-3.8H0v299.4h276.6c14.1,0,26.1-1,36.1-2.9c18.4-3.5,32.2-10.2,41.4-20.2
			C361.3,1203.4,366.5,1194.3,369.6,1183.9L369.6,1183.9z M2417.4,935v299.1l88.9,0.3V1156h154.3c7.2,0,13.2,1.9,18.1,5.8
			c4.1,3.1,7,7.6,8.8,13.6c1.2,4.1,1.8,9,1.8,14.6v44.3h90.6v-57.2c0-7.8-0.7-14.5-2.2-20.1c-1.4-5.6-4.2-11.3-8.3-17.2
			c-5.1-7-13.2-13.1-24.4-18.2c-8.8-3.9-15.3-5.8-19.6-5.8c1.9,0,6.6-1.4,13.8-4.1c8.8-3.3,15.9-6.9,21.4-10.8
			c7-5.1,12.1-11.4,14.9-19.1c3-7.6,4.4-16.5,4.4-26.7v-43.6c0-13.3-2.6-24.9-7.7-34.8c-5.2-9.9-13.2-19-23.9-27.4
			c-7.8-6.1-19-10.2-33.5-12.3c-9.2-1.4-21.8-2.1-37.9-2.1H2417.4L2417.4,935z M2653.5,1082.6h-147.2v-69.7h148.4
			c5.6,0,10.5,0.5,14.5,1.4c4,1,7.8,2.9,11.3,5.6c4.3,3.6,6.8,6.7,7.7,9.4c0.7,2.8,1.1,7.1,1.1,12.9v12.7c0,7.4-2.8,14-8.5,19.7
			c-3.7,3.3-7.6,5.5-11.7,6.5C2665,1082.1,2659.8,1082.6,2653.5,1082.6L2653.5,1082.6z M1995.2,935v299.4H2312v-73.8h-225.3v-44.4
			h211.8v-65.9h-212.7v-41.4H2309V935H1995.2L1995.2,935z M1504.6,1119.4c0,21.8,2.1,40.4,6.5,56c4.3,15.6,11,26.7,20.2,33.6
			c14.9,10.9,30.7,18.4,47.5,22.3c11.2,2.6,25.2,3.8,42.2,3.8h14.4h114.1h6.4h8.8c15.6,0,29.6-0.8,41.9-2.3
			c18.2-2.4,31.9-6.3,41.1-11.8c14.5-8.6,25.3-18.9,32.4-30.8c7.2-12,10.7-26,10.7-42.1v-85.5H1682v59.1h120
			c0,8.3-0.7,15.4-2.3,21.5c-1.6,6-4.7,10.8-9.4,14.4c-3.7,3-8.4,4.9-13.9,5.8c-5.6,0.9-12.7,1.3-21.3,1.3h-112.6
			c-5.6,0-12.6-1.2-20.8-3.5c-8.2-2.4-13.9-5.6-17.3-9.7c-4.5-5.6-7.5-11.2-8.8-16.6c-1.3-5.4-2-12.3-2-20.7v-75.3
			c0-13.5,5.3-23.9,16.1-31.1c3.3-2.1,8-3.7,14.1-4.7c6.1-0.9,14.1-1.5,24-1.5h105c9.4,0,17.6,0.6,24.5,1.8c7,1.1,12.1,3.5,15.4,7
			c5.5,5.5,8.2,11.3,8.2,17.5l-0.6,6.2h87.7v-16.1c0-16.6-2.1-29.7-6.5-39.2c-5.1-11.4-14.6-21.8-28.7-31.4
			c-6.6-4.5-19.7-7.9-39.3-10.2c-11.7-1.4-22.5-2.1-32.3-2.1h-150.8c-22.1,0-41.2,1.7-57.4,5.2c-16.3,3.4-28.5,8.3-36.7,14.8
			c-21.1,16.1-31.6,47.9-31.6,95.5V1119.4L1504.6,1119.4z M1015.5,935v299.4h258.4c21.5,0,40.1-1.6,55.7-5
			c18.6-4,32.8-10.3,42.6-19.1c11.5-10,19.5-23.4,23.8-40.2c3.3-12.9,5-30.2,5-51.9v-73.3c0-14.5-2.6-28.9-7.7-43.4
			c-6.7-19-16.8-33.8-30.5-44.6c-10.9-8.6-26.2-14.7-45.7-18.5c-12.2-2.3-24.6-3.5-37.3-3.5H1015.5L1015.5,935z M1261,1155.8h-152.5
			l-0.3-140.8h152.5h7c5.5,0,10.6,0.6,15.4,1.8c4.8,1.1,8.7,3.4,11.9,6.7c8.2,9,12.3,19.1,12.3,30.5v60.1c0,7.4-0.9,13.8-2.8,19.1
			c-1.9,5.3-5.2,9.8-10.1,13.5C1286.4,1152.7,1275.2,1155.8,1261,1155.8L1261,1155.8z M626.9,935l-158.4,299.4h105l25.5-53.5h185.1
			l29.9,53.5h106.8L759.5,935H626.9L626.9,935z M751.9,1113.9H631.7l60.1-117.1L751.9,1113.9L751.9,1113.9z M277.5,1028v4.7
			c0,7.6-2.4,13.2-7.3,16.7c-4,3-7.8,4.7-11.5,5.3c-3.7,0.6-7.4,0.9-11.1,0.9H91.2v-51.2h156.4c1.4,0,4.2,0.2,8.5,0.7
			c4.3,0.4,8,1.6,11,3.2c3.1,1.6,5.5,4.3,7.5,8C276.5,1019.9,277.5,1023.8,277.5,1028L277.5,1028z M289.5,1139v6.1
			c0,3.1-0.6,5.8-1.9,8.1c-1.3,2.3-3.6,4.4-7.1,6.5c-3.4,2-6.7,3.5-9.8,4.2c-3.1,0.8-6.8,1.2-11.2,1.2H91.2v-51.6h168.4
			c6.3,0,12.1,1.2,17.3,3.5c4.3,1.6,7.5,4.3,9.5,8.4C288.5,1129.4,289.5,1133.9,289.5,1139z"/>
		<path class="st1" d="M200.4,1483.1c3.1-6.3,4.7-14.5,4.7-24.5c0-9.1-0.3-15.7-0.9-19.6c-1-6.6-3.2-12.2-6.5-16.9
			c-2.1-2.8-4.7-5-8-6.7c-0.7-0.4-5.7-1.9-14.9-4.6c4.1-1.8,7.2-3.4,9.3-4.7c3.9-2.6,6.9-5.3,9-8.4c2.1-3.1,3.4-5.8,3.9-8.3
			c0.5-2.4,0.7-5.8,0.7-10.3l-0.2-2.8l0.2-4.3c0-7.8-0.8-14.3-2.5-19.7c-1.7-5.4-4.9-10.3-9.6-14.9c-4.6-4.6-11-7.6-19.1-9.1
			c-4.9-0.9-12.7-1.3-23.6-1.3H0v179.6h139.7c9.9,0,18.6-0.6,25.9-1.8c7.3-1.2,13.7-3.3,19-6.2
			C192,1494.6,197.2,1489.4,200.4,1483.1L200.4,1483.1z M1689.7,1371.6c0-4.9-0.5-9.5-1.5-13.7c-0.9-4.2-2.9-8.4-6-12.6
			c-4-5.8-10.1-10.2-18.3-13.1c-6.8-2.4-14-3.9-21.8-4.4c-7.8-0.6-18.1-0.8-31.2-0.8h-42.1c-17.4,0-31.5,1.2-42.4,3.5
			c-10.8,2.3-19.2,6.3-25,12c-5.2,5.2-9.2,14.7-12,28.5c-2.1,10.2-3.1,19.6-3.1,28.3v32.3c0,11.3,1.2,22.6,3.5,34
			c2.4,11.4,5.7,19.4,10.1,23.7c5.8,5.8,13.3,10.1,22.4,13c9.1,2.8,24.5,4.3,46,4.3h58.6c11.9,0,22.1-0.9,30.7-2.7
			c12.3-2.5,21.3-7,26.9-13.3c3.3-3.6,5.4-7.5,6.2-11.6c0.9-4.1,1.3-9.8,1.3-16.9v-17.1h-22.4v9.4c-0.1,1.1-0.1,2.6,0,4.7
			c0,4.9-0.5,8.9-1.5,12.2c-0.9,3.3-3.1,6-6.5,8.2c-4,2.7-9.6,4.5-16.7,5.5c-4.7,0.6-12.3,0.9-22.7,0.9h-10h-9.8h-28.5
			c-18.4,0-31.7-1-39.9-3c-8.2-2-13.5-4.7-15.8-8.2c-3.3-5-5.5-12.3-6.5-22c-0.6-5.2-0.9-11.6-0.9-19.1v-38.7
			c0-6.7,0.9-14.2,2.8-22.6c1.8-8.4,4.3-13.9,7.3-16.6c3-2.7,8-4.7,15-5.9c7-1.2,16.9-1.8,29.8-1.8h46.4c10.1,0,18.1,0.3,24.3,0.9
			c11.3,1.1,19,3.2,23.4,6.2c2.4,1.7,4.3,4.2,5.5,7.6c1.3,3.4,1.9,8.8,1.9,16.2c-0.1,0.8-0.1,2.1,0,3.7v6.2h22.1v-8.5V1371.6
			L1689.7,1371.6z M1813.2,1401.3V1327h-23.5v179.6l23.5,0.2v-80.8h163.5v80.6l23.7-0.2V1327h-23.7v74.3H1813.2L1813.2,1401.3z
			 M2333.1,1506.6L2228.9,1327h-34.7l-100.9,179.6h28l22.1-37.5h139.5l23.9,37.6L2333.1,1506.6L2333.1,1506.6z M2210.7,1341.9
			l60.3,104.8h-116.1L2210.7,1341.9L2210.7,1341.9z M2456.3,1506.6V1327h-24.6v179.6H2456.3L2456.3,1506.6z M2557.7,1327v179.6h22.6
			v-159.7l157.4,159.7h37.8V1327h-24.6v159.8l-156.6-159.9L2557.7,1327L2557.7,1327z M1180.3,1327v179.6l23.3-0.2v-82.5l30.3,0.1
			l121.3,82.6h42.9l-140.9-92.4l134-87.2l-44.4,0.1l-115.6,77.3l-27.6-0.2V1327H1180.3L1180.3,1327z M891.2,1489.3
			c5.8,5.8,13.3,10.1,22.4,13c9.1,2.8,24.5,4.3,46,4.3h58.6c11.9,0,22.1-0.9,30.7-2.7c12.3-2.5,21.3-7,26.9-13.3
			c3.3-3.6,5.3-7.5,6.2-11.6c0.9-4.1,1.3-9.8,1.3-16.9v-17.1H1061v9.4c-0.1,1.1-0.1,2.6,0,4.7c0,4.9-0.5,8.9-1.5,12.2
			c-0.9,3.3-3.1,6-6.5,8.2c-4,2.7-9.6,4.5-16.7,5.5c-4.7,0.6-12.3,0.9-22.7,0.9h-10h-9.8h-28.5c-18.4,0-31.7-1-39.9-3
			c-8.2-2-13.5-4.7-15.8-8.2c-3.3-5-5.5-12.3-6.6-22c-0.6-5.2-0.9-11.6-0.9-19.1v-38.7c0-6.7,0.9-14.2,2.8-22.6
			c1.9-8.4,4.3-13.9,7.3-16.6c3-2.7,8-4.7,15-5.9c7-1.2,16.9-1.8,29.8-1.8h46.4c10.1,0,18.1,0.3,24.3,0.9c11.3,1.1,19,3.2,23.4,6.2
			c2.4,1.7,4.3,4.2,5.5,7.6c1.3,3.4,1.9,8.8,1.9,16.2c-0.1,0.8-0.1,2.1,0,3.7v6.2h22.1v-8.5v-8.4c0-4.9-0.5-9.5-1.5-13.7
			c-0.9-4.2-2.9-8.4-6-12.6c-4-5.8-10.1-10.2-18.3-13.1c-6.8-2.4-14-3.9-21.8-4.4c-7.8-0.6-18.1-0.8-31.2-0.8H960
			c-17.4,0-31.5,1.2-42.4,3.5c-10.8,2.3-19.2,6.3-25,12c-5.2,5.2-9.2,14.7-12,28.5c-2.1,10.2-3.1,19.6-3.1,28.3v32.3
			c0,11.3,1.2,22.6,3.5,34C883.5,1477,886.9,1485,891.2,1489.3L891.2,1489.3z M730.7,1484.3c-5.5,1-14.5,1.5-27.3,1.5h-70.3
			c-14.4,0-24.7-0.8-30.9-2.4c-6.2-1.6-10.8-4.1-14-7.7c-3.1-3.6-5.3-8.6-6.4-15.1c-1.2-6.5-1.7-14.3-1.7-23.4v-26.7v-10.7
			c0-12.8,0.8-22.4,2.4-28.5c1.6-6.2,3.7-11.1,6.5-14.8c2.8-3.7,11.5-6.2,26.2-7.5c8.1-0.7,19.7-1.1,34.7-1.1h53.9
			c9.4,0,17,0.3,22.7,0.9c10.5,1.1,17.3,3.2,20.5,6.4c4.4,4.4,7.2,10.2,8.4,17.5c0.6,3.8,0.9,11,0.9,21.6v41.3
			c0,11.7-0.5,20.5-1.6,26.2c-1.7,9-5.2,14.9-10.4,18C740.7,1481.8,736.2,1483.4,730.7,1484.3L730.7,1484.3z M557.8,1433.4
			c0,18.5,1,31.8,3.1,39.9c2.1,8,5.2,14.4,9.3,19.2c4.1,4.7,10.3,8.2,18.5,10.4c6.8,1.8,14.3,2.9,22.6,3.3
			c8.3,0.3,20.1,0.5,35.5,0.5h49.6c14.6,0,25.5-0.3,32.5-0.9c16.1-1.3,27.1-4.3,33.1-8.7c6.6-4.9,11.3-12.7,14.2-23.2
			c2.3-8.5,3.5-19.2,3.5-32.2V1386c0-9.7-1.3-18.8-3.8-27.4c-2.9-9.8-7.2-16.8-12.7-20.9c-4.6-3.5-11.9-6.2-21.7-8
			c-9.9-1.8-26.8-2.7-50.8-2.7h-40.5h-10c-16.7,0-29.7,0.7-39.1,2c-14.2,2.1-24,5.9-29.7,11.5c-5.6,5.6-9.4,14.2-11.5,25.5
			c-1.3,7.4-2,17.1-2,29.2V1433.4L557.8,1433.4z M302.3,1327v179.6h163.3v-20.8H327.8V1327H302.3L302.3,1327z M172.3,1362.7
			c0.5,2.1,0.7,5.8,0.7,11.3c-0.1,0.9-0.1,2.2,0,4c0,4.6-0.4,8.5-1.1,11.7c-0.7,3.2-2.4,6.1-5,8.7c-2.6,2.6-5.8,4.3-9.5,5.2
			c-2.2,0.5-5.9,0.7-11.3,0.7H25.1V1348h124.6c3.5,0,6.9,0.4,10.2,1.3c3.3,0.8,5.6,1.9,6.8,3.2
			C169.6,1355.7,171.4,1359.1,172.3,1362.7L172.3,1362.7z M180.1,1439.9c0.9,2.9,1.3,7,1.3,12.4v3.9v3.7c0,3.5-0.4,6.7-1.2,9.7
			c-0.8,2.9-2.3,5.5-4.5,7.8c-3,3.3-7.3,5.6-12.9,6.9c-4.2,1-9.7,1.5-16.5,1.5H25.1v-60.1h124.9c5.7,0,10.7,0.4,14.9,1.1
			c4.2,0.7,7.4,2.1,9.4,4.2C177.3,1434,179.3,1437,180.1,1439.9z"/>
	</g>
</g>
</svg>
